<svg width="42" height="44" viewBox="0 0 42 44" fill="none" xmlns="http://www.w3.org/2000/svg">
<g filter="url(#filter0_i_1_521)">
<rect x="0.281738" y="43.6006" width="43.1485" height="41.2795" rx="14.9235" transform="rotate(-90 0.281738 43.6006)" fill="#EEE7E1"/>
</g>
<path d="M27.85 30.3345C27.3946 30.3388 27.0512 30.1211 26.7416 29.8098C25.0166 28.0778 23.2881 26.3494 21.5545 24.627C21.4148 24.4882 21.2353 24.3581 21.0506 24.3026C20.7505 24.2116 20.5216 24.3859 20.3117 24.5975C18.5711 26.345 16.8235 28.0848 15.0838 29.8323C14.6979 30.22 14.2538 30.4229 13.7092 30.3041C12.6676 30.0769 12.2643 28.8419 12.9642 28.0371C13.1411 27.8333 13.3415 27.6494 13.5323 27.4586C15.1228 25.8672 16.7134 24.2766 18.304 22.686C18.8122 22.1778 18.813 21.8786 18.3057 21.3713C16.5694 19.6341 14.8314 17.8996 13.0978 16.1616C12.5011 15.5641 12.4517 14.7549 12.9633 14.1842C13.5028 13.5841 14.3822 13.5537 14.9849 14.1331C15.5226 14.65 16.043 15.1859 16.5703 15.7132C17.8174 16.9595 19.0637 18.2066 20.3108 19.452C20.7557 19.896 21.0879 19.8978 21.5319 19.4546C23.2847 17.7045 25.0339 15.9509 26.7876 14.2016C27.3678 13.6222 28.1396 13.5572 28.7155 14.0247C29.3581 14.5459 29.4093 15.4695 28.8152 16.0896C28.359 16.5657 27.8846 17.0254 27.4181 17.492C26.118 18.792 24.8171 20.092 23.518 21.3929C23.041 21.8708 23.0401 22.183 23.5162 22.6592C25.2594 24.4032 27.0044 26.1456 28.7458 27.8922C29.359 28.5071 29.3928 29.3484 28.8352 29.9164C28.5646 30.1922 28.235 30.331 27.8482 30.3345H27.85Z" fill="#2C2F30"/>
<defs>
<filter id="filter0_i_1_521" x="0.281738" y="0.452148" width="41.2795" height="44.7618" filterUnits="userSpaceOnUse" color-interpolation-filters="sRGB">
<feFlood flood-opacity="0" result="BackgroundImageFix"/>
<feBlend mode="normal" in="SourceGraphic" in2="BackgroundImageFix" result="shape"/>
<feColorMatrix in="SourceAlpha" type="matrix" values="0 0 0 0 0 0 0 0 0 0 0 0 0 0 0 0 0 0 127 0" result="hardAlpha"/>
<feOffset dy="1.61336"/>
<feGaussianBlur stdDeviation="2.6217"/>
<feComposite in2="hardAlpha" operator="arithmetic" k2="-1" k3="1"/>
<feColorMatrix type="matrix" values="0 0 0 0 0 0 0 0 0 0 0 0 0 0 0 0 0 0 0.25 0"/>
<feBlend mode="normal" in2="shape" result="effect1_innerShadow_1_521"/>
</filter>
</defs>
</svg>
