<svg width="42" height="44" viewBox="0 0 42 44" fill="none" xmlns="http://www.w3.org/2000/svg">
<g filter="url(#filter0_i_1_328)">
<rect x="0.0350342" y="43.9678" width="43.3678" height="41.4893" rx="14.9994" transform="rotate(-90 0.0350342 43.9678)" fill="#EEE7E1"/>
</g>
<path d="M31.6023 31.6028C31.6023 30.2666 31.6008 28.9311 31.6038 27.595C31.6038 27.2353 31.4017 27.0204 31.1083 26.8771C30.8403 26.7466 30.6285 26.8635 30.4309 27.0535C29.9654 27.5022 29.4916 27.9426 29.0208 28.386C28.928 28.4727 28.8329 28.5571 28.7177 28.6612C28.6189 28.5503 28.5478 28.4629 28.4692 28.3837C27.6833 27.5919 26.9034 26.7941 26.1077 26.0122C25.5958 25.5092 24.8885 25.5266 24.4102 26.0257C23.9432 26.5136 23.9537 27.2096 24.4417 27.7171C24.6954 27.981 24.9566 28.2367 25.2148 28.4953C25.8226 29.1046 26.4311 29.7139 27.0441 30.3277C27.0007 30.3857 26.9767 30.4257 26.946 30.4589C26.4303 31.0169 25.9131 31.5726 25.3982 32.1314" fill="white"/>
<path d="M25.1626 11.9546C25.0511 12.1883 25.1274 12.3919 25.2966 12.5707C25.4388 12.72 25.5802 12.8708 25.7202 13.0223C26.1191 13.4544 26.5166 13.8865 26.9641 14.3729C26.8571 14.4498 26.7636 14.5003 26.691 14.5719C25.9028 15.3614 25.1139 16.1502 24.3333 16.9472C23.8573 17.4329 23.8138 18.0542 24.2023 18.5519C24.6701 19.1514 25.453 19.1974 26.0128 18.6416C26.8766 17.7827 27.7298 16.9133 28.604 16.0318C28.6729 16.0899 28.7171 16.1238 28.7575 16.1623C29.3106 16.6818 29.8615 17.2044 30.4183 17.7209C30.6219 17.9102 30.8569 18.0142 31.1339 17.8823C31.4026 17.7541 31.4879 17.5301 31.4871 17.2375C31.4804 15.5726 31.4849 13.9069 31.4834 12.2419" fill="white"/>
<path d="M9.96101 12.2019C9.95876 13.8948 9.9625 15.5876 9.95801 17.2805C9.95726 17.5784 10.0725 17.7895 10.345 17.9011C10.6099 18.0097 10.7813 17.8543 10.9535 17.6787C11.4894 17.1312 12.032 16.5905 12.5844 16.034C12.6764 16.1208 12.7513 16.1879 12.8224 16.2595C13.6083 17.0505 14.3904 17.8461 15.1801 18.6333C15.6554 19.1068 16.293 19.1581 16.7743 18.7788C17.3484 18.3264 17.43 17.5625 16.933 17.0196C16.2818 16.307 15.6082 15.6148 14.9451 14.9135C14.7662 14.725 14.5895 14.5342 14.3957 14.3276C14.96 13.7191 15.5042 13.1264 16.0565 12.5427C16.2279 12.361 16.3642 12.183 16.2444 11.9214" fill="white"/>
<path d="M15.9273 32.0248C15.4393 31.5588 14.946 31.0988 14.4558 30.6358C14.3982 30.5815 14.348 30.5182 14.2791 30.442C14.3667 30.3621 14.4386 30.3017 14.5044 30.2354C15.2971 29.4376 16.0942 28.6443 16.8801 27.839C17.3943 27.3126 17.3838 26.6023 16.8756 26.1099C16.3853 25.6356 15.6938 25.653 15.1766 26.1695C14.3211 27.0231 13.4738 27.885 12.5884 28.7785C11.9694 28.1881 11.3684 27.6263 10.7823 27.0495C10.551 26.8218 10.3235 26.7939 10.1229 27.0495C10.0368 27.1596 9.96722 27.3179 9.96647 27.4544C9.95749 29.1842 9.95824 30.9156 9.96198 32.6461" fill="white"/>
<path d="M25.3969 32.1319C25.9118 31.5739 26.429 31.0174 26.9447 30.4594C26.9754 30.4262 26.9993 30.3862 27.0427 30.3282C26.4297 29.7144 25.8212 29.1051 25.2135 28.4958C24.9553 28.2371 24.694 27.9808 24.4403 27.7176C23.9523 27.2101 23.9418 26.5134 24.4089 26.0262C24.8872 25.527 25.5945 25.5097 26.1064 26.0127C26.902 26.7946 27.6819 27.5917 28.4678 28.3842C28.5464 28.4641 28.6183 28.5508 28.7163 28.6617C28.8316 28.5569 28.9274 28.4732 29.0194 28.3865C29.4902 27.9431 29.9633 27.5027 30.4296 27.054C30.6272 26.864 30.839 26.7464 31.1069 26.8776C31.4011 27.0208 31.6032 27.2358 31.6024 27.5954C31.5994 28.9316 31.6017 30.2671 31.6009 31.6033" fill="#2C2F30"/>
<path d="M31.4817 12.2409C31.4824 13.9059 31.4787 15.5716 31.4854 17.2366C31.4869 17.5291 31.4008 17.7531 31.1321 17.8813C30.8552 18.0133 30.6202 17.9092 30.4166 17.7199C29.8605 17.2034 29.3096 16.6808 28.7558 16.1613C28.7153 16.1236 28.6712 16.0896 28.6023 16.0308C27.7289 16.9116 26.8756 17.7818 26.0111 18.6406C25.452 19.1964 24.6691 19.1504 24.2006 18.5509C23.8121 18.0532 23.8555 17.4319 24.3316 16.9463C25.1122 16.1492 25.9011 15.3605 26.6892 14.571C26.7611 14.4986 26.8547 14.4488 26.9624 14.3719C26.5149 13.8855 26.1167 13.4534 25.7185 13.0214C25.5785 12.8698 25.4371 12.7197 25.2948 12.5697C25.1257 12.391 25.0493 12.1881 25.1609 11.9536" fill="#2C2F30"/>
<path d="M16.2444 11.9224C16.3649 12.184 16.2287 12.362 16.0565 12.5437C15.5042 13.1281 14.96 13.7208 14.3957 14.3286C14.5895 14.5352 14.7669 14.7252 14.9451 14.9145C15.6082 15.6158 16.2818 16.308 16.933 17.0206C17.4292 17.5635 17.3484 18.3274 16.7743 18.7798C16.293 19.1591 15.6546 19.1078 15.1801 18.6343C14.3904 17.847 13.6083 17.0522 12.8224 16.2605C12.7513 16.1888 12.6757 16.1217 12.5844 16.035C12.032 16.5908 11.4894 17.1322 10.9535 17.6796C10.7813 17.8553 10.6092 18.0107 10.345 17.9021C10.0725 17.7897 9.95726 17.5786 9.95801 17.2807C9.9625 15.5879 9.95876 13.895 9.96101 12.2021" fill="#2C2F30"/>
<path d="M9.96179 32.6461C9.95805 30.9155 9.95655 29.1842 9.96703 27.4537C9.96778 27.3172 10.0374 27.1588 10.1235 27.0487C10.3241 26.7931 10.5516 26.821 10.7829 27.0487C11.3689 27.6256 11.9699 28.1874 12.5889 28.7778C13.4744 27.8842 14.3216 27.0223 15.1771 26.1687C15.6943 25.6529 16.3859 25.6349 16.8761 26.1092C17.3851 26.6016 17.3948 27.3111 16.8806 27.8382C16.0947 28.6428 15.2976 29.4368 14.505 30.2346C14.4391 30.301 14.3673 30.3613 14.2797 30.4412C14.3486 30.5174 14.3987 30.58 14.4563 30.635C14.9466 31.098 15.4406 31.558 15.9278 32.024" fill="#2C2F30"/>
<defs>
<filter id="filter0_i_1_328" x="0.0350342" y="0.600098" width="41.4893" height="44.9892" filterUnits="userSpaceOnUse" color-interpolation-filters="sRGB">
<feFlood flood-opacity="0" result="BackgroundImageFix"/>
<feBlend mode="normal" in="SourceGraphic" in2="BackgroundImageFix" result="shape"/>
<feColorMatrix in="SourceAlpha" type="matrix" values="0 0 0 0 0 0 0 0 0 0 0 0 0 0 0 0 0 0 127 0" result="hardAlpha"/>
<feOffset dy="1.62155"/>
<feGaussianBlur stdDeviation="2.63503"/>
<feComposite in2="hardAlpha" operator="arithmetic" k2="-1" k3="1"/>
<feColorMatrix type="matrix" values="0 0 0 0 0 0 0 0 0 0 0 0 0 0 0 0 0 0 0.25 0"/>
<feBlend mode="normal" in2="shape" result="effect1_innerShadow_1_328"/>
</filter>
</defs>
</svg>
