<svg width="70" height="67" viewBox="0 0 70 67" fill="none" xmlns="http://www.w3.org/2000/svg">
<g filter="url(#filter0_i_140_2)">
<rect x="0.5" y="0.5" width="68.707" height="65.731" rx="23.7633" fill="#EEE7E1"/>
</g>
<path d="M53.0116 33.5323L45.2042 26.1806C45.2042 26.1685 45.2072 26.1535 45.2072 26.1415V19.4666C45.2072 18.895 44.7359 18.4318 44.1544 18.4318C43.5729 18.4318 43.1016 18.895 43.1016 19.4666V24.2013L35.6277 17.1594C35.1931 16.7503 34.5106 16.7503 34.0791 17.1594L16.6952 33.5323C16.2483 33.9534 16.233 34.6483 16.6615 35.0875C17.09 35.5266 17.797 35.5417 18.2438 35.1206L34.8534 19.4786L51.463 35.1236C51.6803 35.3281 51.9588 35.4304 52.2373 35.4304C52.5311 35.4304 52.8249 35.3161 53.0453 35.0905C53.4737 34.6513 53.4584 33.9534 53.0116 33.5323Z" fill="#2C2F30"/>
<path d="M46.4709 34.053C45.8527 34.053 45.3508 34.5463 45.3508 35.1539V47.6765H38.9818V44.4398C38.9818 43.8322 38.4798 43.3389 37.8616 43.3389H31.8415C31.2233 43.3389 30.7214 43.8322 30.7214 44.4398V47.6735H24.3524V35.1539C24.3524 34.5463 23.8504 34.053 23.2322 34.053C22.614 34.053 22.1121 34.5463 22.1121 35.1539V48.7775C22.1121 49.3851 22.614 49.8784 23.2322 49.8784H31.8415C32.4598 49.8784 32.9617 49.3851 32.9617 48.7775V45.5408H36.7415V48.7745C36.7415 49.3821 37.2434 49.8754 37.8616 49.8754H46.4709C47.0892 49.8754 47.5911 49.3821 47.5911 48.7745V35.1539C47.5911 34.5463 47.0892 34.053 46.4709 34.053Z" fill="#2C2F30"/>
<defs>
<filter id="filter0_i_140_2" x="0.5" y="0.5" width="68.707" height="68.3" filterUnits="userSpaceOnUse" color-interpolation-filters="sRGB">
<feFlood flood-opacity="0" result="BackgroundImageFix"/>
<feBlend mode="normal" in="SourceGraphic" in2="BackgroundImageFix" result="shape"/>
<feColorMatrix in="SourceAlpha" type="matrix" values="0 0 0 0 0 0 0 0 0 0 0 0 0 0 0 0 0 0 127 0" result="hardAlpha"/>
<feOffset dy="2.56901"/>
<feGaussianBlur stdDeviation="4.17464"/>
<feComposite in2="hardAlpha" operator="arithmetic" k2="-1" k3="1"/>
<feColorMatrix type="matrix" values="0 0 0 0 0 0 0 0 0 0 0 0 0 0 0 0 0 0 0.25 0"/>
<feBlend mode="normal" in2="shape" result="effect1_innerShadow_140_2"/>
</filter>
</defs>
</svg>
