<svg width="54" height="56" viewBox="0 0 54 56" fill="none" xmlns="http://www.w3.org/2000/svg">
<g filter="url(#filter0_d_1_524)">
<rect x="6.18359" y="48.2451" width="44.245" height="42.3285" rx="15.3028" transform="rotate(-90 6.18359 48.2451)" fill="#EEE7E1"/>
</g>
<path d="M24.7769 26.1356C25.1632 26.4796 25.5262 26.7983 25.8846 27.121C28.3383 29.3348 30.7903 31.551 33.2467 33.7632C33.7712 34.2351 33.9942 34.7747 33.7297 35.4235C33.346 36.3642 32.0505 36.6763 31.1938 36.0406C31.0719 35.9509 30.9636 35.8466 30.8516 35.7463C27.7452 32.9424 24.6387 30.1385 21.5323 27.3338C20.6268 26.5162 20.6286 25.728 21.5395 24.9056C24.6694 22.0789 27.8021 19.2554 30.9275 16.4254C31.4078 15.9901 31.9449 15.7611 32.6292 15.9233C33.7748 16.1956 34.2181 17.4312 33.4688 18.2602C33.3695 18.3702 33.2548 18.4697 33.1438 18.5699C30.4436 21.0078 27.7434 23.445 25.0432 25.8821C24.9646 25.953 24.8888 26.0272 24.776 26.1348L24.7769 26.1356Z" fill="#2C2F30"/>
<defs>
<filter id="filter0_d_1_524" x="0.806945" y="0.277705" width="53.0817" height="54.9984" filterUnits="userSpaceOnUse" color-interpolation-filters="sRGB">
<feFlood flood-opacity="0" result="BackgroundImageFix"/>
<feColorMatrix in="SourceAlpha" type="matrix" values="0 0 0 0 0 0 0 0 0 0 0 0 0 0 0 0 0 0 127 0" result="hardAlpha"/>
<feOffset dy="1.65435"/>
<feGaussianBlur stdDeviation="2.68832"/>
<feComposite in2="hardAlpha" operator="out"/>
<feColorMatrix type="matrix" values="0 0 0 0 0 0 0 0 0 0 0 0 0 0 0 0 0 0 0.25 0"/>
<feBlend mode="normal" in2="BackgroundImageFix" result="effect1_dropShadow_1_524"/>
<feBlend mode="normal" in="SourceGraphic" in2="effect1_dropShadow_1_524" result="shape"/>
</filter>
</defs>
</svg>
