<svg width="170" height="224" viewBox="0 0 170 224" fill="none" xmlns="http://www.w3.org/2000/svg">
<g filter="url(#filter0_d_1_6168)">
<path d="M83.327 191.605C82.4334 190.461 81.3714 189.413 80.6782 188.161C66.1195 161.958 51.6089 135.731 37.0702 109.517C32.578 101.416 29.9332 92.7471 30.0013 83.4981C30.1576 63.2281 38.7173 47.3224 55.8647 36.3253C66.5563 29.4686 78.43 26.8203 90.981 28.4805C110.353 31.0448 124.839 41.0858 133.507 58.6076C141.942 75.6573 141.237 92.8391 132.104 109.493C117.662 135.819 103.039 162.046 88.4564 188.297C87.7872 189.501 86.7533 190.505 85.8877 191.605H83.327ZM111.835 82.602C111.843 67.5685 99.7091 55.4393 84.6294 55.4073C69.5939 55.3753 57.3915 67.5365 57.3795 82.558C57.3674 97.5396 69.6019 109.797 84.5853 109.825C99.5367 109.853 111.827 97.5716 111.835 82.598V82.602Z" fill="#2C2F30"/>
<path d="M57.2139 38.4297C67.4091 31.8913 78.6893 29.3765 90.6533 30.959C109.228 33.4178 122.981 42.967 131.267 59.7158C139.324 76.0005 138.67 92.3196 129.912 108.29C115.474 134.609 100.857 160.827 86.2715 187.082C86.0524 187.476 85.7462 187.886 85.3271 188.388C85.1614 188.586 84.9448 188.837 84.7148 189.105H84.5078C84.2637 188.817 84.0318 188.546 83.8545 188.331C83.422 187.807 83.0993 187.373 82.8652 186.95L82.8633 186.946C68.3052 160.745 53.7972 134.522 39.2568 108.305C34.9324 100.506 32.4368 92.2581 32.501 83.5176C32.6509 64.075 40.7923 48.9614 57.2139 38.4297ZM84.6348 52.9072C68.2188 52.8723 54.8932 66.1508 54.8799 82.5557C54.8668 98.9182 68.2192 112.295 84.5811 112.325C100.917 112.356 114.325 98.9522 114.335 82.6016V82.5977C114.341 66.1804 101.084 52.9422 84.6348 52.9072Z" stroke="#EEE7E1" stroke-width="5"/>
</g>
<defs>
<filter id="filter0_d_1_6168" x="0" y="0" width="169.417" height="223.605" filterUnits="userSpaceOnUse" color-interpolation-filters="sRGB">
<feFlood flood-opacity="0" result="BackgroundImageFix"/>
<feColorMatrix in="SourceAlpha" type="matrix" values="0 0 0 0 0 0 0 0 0 0 0 0 0 0 0 0 0 0 127 0" result="hardAlpha"/>
<feOffset dy="2"/>
<feGaussianBlur stdDeviation="15"/>
<feComposite in2="hardAlpha" operator="out"/>
<feColorMatrix type="matrix" values="0 0 0 0 0 0 0 0 0 0 0 0 0 0 0 0 0 0 0.25 0"/>
<feBlend mode="normal" in2="BackgroundImageFix" result="effect1_dropShadow_1_6168"/>
<feBlend mode="normal" in="SourceGraphic" in2="effect1_dropShadow_1_6168" result="shape"/>
</filter>
</defs>
</svg>
