<svg width="11" height="14" viewBox="0 0 11 14" fill="none" xmlns="http://www.w3.org/2000/svg">
<path d="M5.80566 0.25293C6.03263 0.303827 6.27692 0.311054 6.50391 0.369141C8.39675 0.805742 9.6843 1.82494 10.29 3.42578C10.7696 4.68468 10.6011 5.92199 9.82715 7.06445C8.81766 8.5634 7.76654 10.041 6.74023 11.5254C6.42067 11.9837 6.10081 12.449 5.78125 12.9072C5.68875 13.0382 5.57908 13.1407 5.38574 13.1553C5.16701 13.1698 5.03222 13.0674 4.92285 12.9219C4.62844 12.5144 4.33385 12.1067 4.04785 11.6992C2.97108 10.2076 1.90295 8.70846 0.826172 7.2168C0.212038 6.36541 -0.0661736 5.44126 0.0263672 4.44434C0.152632 3.12736 0.825978 2.0502 2.02051 1.2207C2.78595 0.689646 3.66923 0.384558 4.65332 0.275391C4.68697 0.275391 4.72123 0.260207 4.75488 0.25293H5.80566ZM5.25098 1.01758C4.97335 1.03213 4.67884 1.04672 4.37598 1.09766C2.38231 1.47603 0.918794 2.96722 0.910156 4.80078C0.910156 5.53572 1.16194 6.21307 1.61621 6.83887C2.83607 8.5271 4.04734 10.2156 5.25879 11.9111C5.33441 12.0201 5.34376 12.0201 5.42773 11.9111C6.62232 10.1866 7.82555 8.46187 9.01172 6.7373C9.5922 5.90047 9.77657 4.99038 9.54102 4.03711C9.12033 2.29799 7.379 1.04678 5.24219 1.03223L5.25098 1.01758ZM5.28906 2.4043C6.81356 2.40449 8.03806 3.45639 8.04688 4.77344L8.0332 5.00977C7.89274 6.21033 6.72581 7.13458 5.28027 7.13477C3.74687 7.13477 2.52164 6.08291 2.52148 4.77344C2.52148 3.45628 3.74675 2.4043 5.28906 2.4043ZM5.28027 3.20605C4.28438 3.20605 3.45508 3.91828 3.45508 4.78125C3.45539 5.63643 4.28454 6.33301 5.28906 6.33301C6.28477 6.33281 7.10448 5.6209 7.10449 4.76562C7.10449 3.91035 6.27598 3.20626 5.28027 3.20605Z" fill="#2C2F30"/>
</svg>
