<svg width="54" height="56" viewBox="0 0 54 56" fill="none" xmlns="http://www.w3.org/2000/svg">
<g filter="url(#filter0_d_1_527)">
<rect width="44.245" height="42.3285" rx="15.3028" transform="matrix(4.37114e-08 -1 -1 -4.37114e-08 48.3164 48.2451)" fill="#EEE7E1"/>
</g>
<path d="M29.7234 26.1356C29.337 26.4796 28.9741 26.7983 28.6157 27.121C26.1619 29.3348 23.71 31.551 21.2535 33.7632C20.729 34.2351 20.506 34.7747 20.7705 35.4235C21.1542 36.3642 22.4497 36.6763 23.3064 36.0406C23.4283 35.9509 23.5367 35.8466 23.6486 35.7463C26.7551 32.9424 29.8615 30.1385 32.968 27.3338C33.8735 26.5162 33.8716 25.728 32.9607 24.9056C29.8308 22.0789 26.6982 19.2554 23.5728 16.4254C23.0925 15.9901 22.5553 15.7611 21.871 15.9233C20.7254 16.1956 20.2821 17.4312 21.0314 18.2602C21.1308 18.3702 21.2454 18.4697 21.3564 18.5699C24.0567 21.0078 26.7569 23.445 29.4571 25.8821C29.5356 25.953 29.6114 26.0272 29.7243 26.1348L29.7234 26.1356Z" fill="#2C2F30"/>
<defs>
<filter id="filter0_d_1_527" x="0.611145" y="0.277705" width="53.0819" height="54.9984" filterUnits="userSpaceOnUse" color-interpolation-filters="sRGB">
<feFlood flood-opacity="0" result="BackgroundImageFix"/>
<feColorMatrix in="SourceAlpha" type="matrix" values="0 0 0 0 0 0 0 0 0 0 0 0 0 0 0 0 0 0 127 0" result="hardAlpha"/>
<feOffset dy="1.65435"/>
<feGaussianBlur stdDeviation="2.68832"/>
<feComposite in2="hardAlpha" operator="out"/>
<feColorMatrix type="matrix" values="0 0 0 0 0 0 0 0 0 0 0 0 0 0 0 0 0 0 0.25 0"/>
<feBlend mode="normal" in2="BackgroundImageFix" result="effect1_dropShadow_1_527"/>
<feBlend mode="normal" in="SourceGraphic" in2="effect1_dropShadow_1_527" result="shape"/>
</filter>
</defs>
</svg>
