<svg width="16" height="13" viewBox="0 0 16 13" fill="none" xmlns="http://www.w3.org/2000/svg">
<path d="M8.64062 0.116211C8.97459 0.159087 9.30861 0.181445 9.64258 0.25293C12.4153 0.853625 14.2359 2.32642 15.1045 4.65039C15.2548 5.05786 15.3214 5.4796 15.3799 5.90137V6.88867C15.3465 7.11737 15.3137 7.35333 15.2637 7.58203C14.5203 10.9787 10.6279 13.2461 6.65234 12.5811C2.49321 11.8874 -0.162706 8.32605 0.939453 4.82227C1.64937 2.5483 3.38724 1.06762 6.00977 0.352539C6.47734 0.223911 6.95323 0.1734 7.4375 0.116211H8.64062ZM8.05566 0.974609C4.55629 0.967459 1.73367 3.37732 1.7168 6.3877C1.70009 9.38379 4.5392 11.815 8.04688 11.8223C11.5547 11.8294 14.4029 9.35561 14.3779 6.40234C14.3779 3.40617 11.5635 0.981797 8.05566 0.974609ZM7.85352 1.99023C8.04561 1.91873 8.22998 1.95461 8.38867 2.07617C8.51385 2.16908 8.54684 2.29069 8.54688 2.43359V5.72363C8.54688 5.9376 8.54739 5.9375 8.78906 5.9375H11.5869C11.7622 5.9375 11.9294 5.96648 12.0547 6.08789C12.2969 6.31672 12.1887 6.68895 11.8379 6.78906C11.7544 6.81049 11.6704 6.81738 11.5869 6.81738H7.7793C7.55379 6.81738 7.55371 6.81678 7.55371 6.63086V4.53613L7.54492 4.51465V2.39062C7.54502 2.19781 7.65339 2.06174 7.85352 1.99023Z" fill="#2C2F30"/>
</svg>
